<svg id="Layer_1" data-name="Layer 1" xmlns="http://www.w3.org/2000/svg" viewBox="0 0 1920 1080"><defs><style>.cls-1,.cls-2,.cls-5{fill:#41bda7;}.cls-1{opacity:0.33;}.cls-2{font-size:101.48px;}.cls-2,.cls-5,.cls-6,.cls-7{font-family:Nexa-Book, Nexa;}.cls-3{font-size:55.82px;}.cls-3,.cls-4{font-family:FreestyleScript-Regular, Freestyle Script;}.cls-4{opacity:0.1;font-size:264.31px;}.cls-5{font-size:93.21px;}.cls-6{font-size:75.58px;}.cls-6,.cls-7{fill:#666;}.cls-7{font-size:31.91px;}</style></defs><title>GrantBiz_Logo</title><path class="cls-1" d="M604,458.31c3.44,49.79-57.36,124.37-118.54,124.37s-127.28-92.3-127.28-152.55c0-48.58,79-59.8,116.41-56.35C527.25,378.64,600.13,402,604,458.31Z"/><path class="cls-1" d="M320.91,441.6c-3.43,49.79,84,118.94,145.19,118.94s100.63-86.87,100.64-147.11c0-48.59-79-59.81-116.41-56.36C397.67,361.93,324.8,385.25,320.91,441.6Z"/><path class="cls-1" d="M594.78,415.34c3.43,49.79-57.37,124.37-118.55,124.37S349,447.41,349,387.16c0-48.58,79-59.8,116.41-56.35C518,335.67,590.89,359,594.78,415.34Z"/><text class="cls-2" transform="translate(255.57 672.8)">GrantBiz</text><text class="cls-3" transform="translate(375.76 732.62)">Marketplace</text><text class="cls-4" transform="translate(1044.5 994.1)">Marketplace</text><path class="cls-1" d="M506.69-198.91C519.75-9.58,288.55,274,55.92,274s-484-351-484-580.09c0-184.74,300.49-227.42,442.67-214.3C214.8-501.89,491.91-413.21,506.69-198.91Z"/><path class="cls-1" d="M420.77,905.71c-3.11,45.09,76.09,107.73,131.5,107.73s91.15-78.69,91.16-133.26c0-44-71.58-54.16-105.44-51C490.29,833.54,424.29,854.66,420.77,905.71Z"/><path class="cls-1" d="M1742.09,471c10.84,139.3-181,348-374,348S966.42,560.73,966.4,392.17c0-135.93,249.35-167.33,367.33-157.68C1499.88,248.09,1729.83,313.33,1742.09,471Z"/><text class="cls-5" transform="translate(719.89 404.56)">GrantBiz Marketplace </text><text class="cls-6" transform="translate(719.89 509.81)">Your Platform to Explore <tspan x="0" y="90.69">Entrepreneurship World</tspan></text><text class="cls-7" transform="translate(719.89 739.74)">To Advertise, Reach Out: GrantBiz<tspan x="514.36" y="0">2022</tspan><tspan x="600.49" y="0">@gmail.com</tspan></text></svg>